<svg id="Сгруппировать_5323" data-name="Сгруппировать 5323" width="100%" height="100%" xmlns="http://www.w3.org/2000/svg" viewBox="0 0 75.573 71.08">
  <defs>
    <linearGradient id="linear-gradient2" x1="0.119" y1="0.141" x2="0.871" y2="0.839" gradientUnits="objectBoundingBox">
      <stop offset="0" stop-color="#cf55d9"/>
      <stop offset="1" stop-color="#44e7ed"/>
    </linearGradient>
  </defs>
  <g id="Сгруппировать_5325" transform="translate(0 0)">
    <ellipse id="Эллипс_48489" cx="0.857" cy="0.856" rx="0.857" ry="0.856" transform="translate(25.715)" fill="#b273dd"/>
    <ellipse id="Эллипс_48490" cx="0.857" cy="0.856" rx="0.857" ry="0.856" transform="translate(17.144)" fill="#b273dd"/>
    <ellipse id="Эллипс_48491" cx="0.857" cy="0.856" rx="0.857" ry="0.856" transform="translate(8.572)" fill="#b273dd"/>
    <ellipse id="Эллипс_48494" cx="0.857" cy="0.856" rx="0.857" ry="0.856" transform="translate(34.286 7.658)" fill="#b273dd" opacity="0.744"/>
    <ellipse id="Эллипс_48495" cx="0.857" cy="0.856" rx="0.857" ry="0.856" transform="translate(25.715 7.658)" fill="#b273dd"/>
    <ellipse id="Эллипс_48496" cx="0.857" cy="0.856" rx="0.857" ry="0.856" transform="translate(17.144 7.658)" fill="#b273dd"/>
    <ellipse id="Эллипс_48497" cx="0.857" cy="0.856" rx="0.857" ry="0.856" transform="translate(8.572 7.658)" fill="#b273dd"/>
    <ellipse id="Эллипс_48498" cx="0.857" cy="0.856" rx="0.857" ry="0.856" transform="translate(0 7.658)" fill="#b273dd"/>
    <ellipse id="Эллипс_48500" cx="0.857" cy="0.856" rx="0.857" ry="0.856" transform="translate(34.286 15.316)" fill="#b273dd" opacity="0.599"/>
    <ellipse id="Эллипс_48501" cx="0.857" cy="0.856" rx="0.857" ry="0.856" transform="translate(25.715 15.316)" fill="#b273dd" opacity="0.744"/>
    <ellipse id="Эллипс_48502" cx="0.857" cy="0.856" rx="0.857" ry="0.856" transform="translate(17.144 15.316)" fill="#b273dd"/>
    <ellipse id="Эллипс_48503" cx="0.857" cy="0.856" rx="0.857" ry="0.856" transform="translate(8.572 15.316)" fill="#b273dd"/>
    <ellipse id="Эллипс_48504" cx="0.857" cy="0.856" rx="0.857" ry="0.856" transform="translate(0 15.316)" fill="#b273dd"/>
    <ellipse id="Эллипс_48506" cx="0.857" cy="0.856" rx="0.857" ry="0.856" transform="translate(34.286 22.973)" fill="#b273dd" opacity="0.547"/>
    <ellipse id="Эллипс_48507" cx="0.857" cy="0.856" rx="0.857" ry="0.856" transform="translate(25.715 22.973)" fill="#b273dd" opacity="0.599"/>
    <ellipse id="Эллипс_48508" cx="0.857" cy="0.856" rx="0.857" ry="0.856" transform="translate(17.144 22.973)" fill="#b273dd" opacity="0.744"/>
    <ellipse id="Эллипс_48509" cx="0.857" cy="0.856" rx="0.857" ry="0.856" transform="translate(8.572 22.973)" fill="#b273dd"/>
    <ellipse id="Эллипс_48510" cx="0.857" cy="0.856" rx="0.857" ry="0.856" transform="translate(0 22.973)" fill="#b273dd"/>
    <ellipse id="Эллипс_48512" cx="0.857" cy="0.856" rx="0.857" ry="0.856" transform="translate(34.286 30.631)" fill="#b273dd" opacity="0.274"/>
    <ellipse id="Эллипс_48513" cx="0.857" cy="0.856" rx="0.857" ry="0.856" transform="translate(25.715 30.631)" fill="#b273dd" opacity="0.547"/>
    <ellipse id="Эллипс_48514" cx="0.857" cy="0.856" rx="0.857" ry="0.856" transform="translate(17.144 30.631)" fill="#b273dd" opacity="0.599"/>
    <ellipse id="Эллипс_48515" cx="0.857" cy="0.856" rx="0.857" ry="0.856" transform="translate(8.572 30.631)" fill="#b273dd" opacity="0.744"/>
    <ellipse id="Эллипс_48516" cx="0.857" cy="0.856" rx="0.857" ry="0.856" transform="translate(0 30.631)" fill="#b273dd"/>
    <ellipse id="Эллипс_48519" cx="0.857" cy="0.856" rx="0.857" ry="0.856" transform="translate(25.715 38.289)" fill="#b273dd" opacity="0.274"/>
    <ellipse id="Эллипс_48520" cx="0.857" cy="0.856" rx="0.857" ry="0.856" transform="translate(17.144 38.289)" fill="#b273dd" opacity="0.547"/>
    <ellipse id="Эллипс_48521" cx="0.857" cy="0.856" rx="0.857" ry="0.856" transform="translate(8.572 38.289)" fill="#b273dd" opacity="0.599"/>
  </g>
  <g id="Сгруппировать_5324" transform="translate(9.501 20.092)">
    <circle id="Эллипс_48480" cx="13.5" cy="13.5" r="13.5" transform="translate(39.072 23.988)" opacity="0.3" fill="url(#linear-gradient2)"/>
    <g id="Сгруппировать_5335" transform="translate(0 0)">
      <g id="Объединение_67" transform="translate(24.841 0)" fill="#fff">
        <path d="M 14.55487060546875 40.16777420043945 C 14.1561803817749 40.16777420043945 13.92123031616211 40.15816497802734 13.91890048980713 40.15806198120117 L 13.86627006530762 40.15586471557617 L 13.81291007995605 40.15807342529297 C 13.81128025054932 40.15814208984375 13.57600975036621 40.16769409179688 13.17687034606934 40.16770553588867 C 11.92866039276123 40.1677131652832 8.722380638122559 40.07204437255859 5.915000438690186 39.18549346923828 C 4.44566011428833 38.72149276733398 3.305060148239136 38.11144256591797 2.524890184402466 37.3723030090332 C 1.667020201683044 36.55955505371094 1.250000238418579 35.59431457519531 1.250000238418579 34.42141342163086 C 1.250000238418579 31.09358406066895 2.560630321502686 27.96416282653809 4.940470218658447 25.60960388183594 C 7.323910236358643 23.25148391723633 10.49374008178711 21.95280456542969 13.86604976654053 21.95280456542969 L 13.86604976654053 19.45280456542969 C 8.82118034362793 19.45280456542969 4.716870307922363 15.36969375610352 4.716870307922363 10.35086345672607 C 4.716870307922363 5.332633972167969 8.82118034362793 1.250003695487976 13.86604976654053 1.250003695487976 C 18.91037940979004 1.250003695487976 23.01424980163574 5.332633972167969 23.01424980163574 10.35086345672607 C 23.01424980163574 15.36969375610352 18.91037940979004 19.45280456542969 13.86604976654053 19.45280456542969 L 13.86604976654053 21.95280456542969 C 17.23771095275879 21.95280456542969 20.40707015991211 23.25147438049316 22.79031944274902 25.60957336425781 C 25.1700611114502 27.96420288085938 26.48064041137695 31.09364318847656 26.48064041137695 34.42141342163086 C 26.48064041137695 35.59434509277344 26.06365013122559 36.55960464477539 25.20584106445312 37.37236404418945 C 24.42573928833008 38.11149215698242 23.28524971008301 38.72153472900391 21.81606101989746 39.18554306030273 C 19.00901031494141 40.07206344604492 15.80298042297363 40.16777420043945 14.55487060546875 40.16777420043945 Z" stroke="none"/>
        <path d="M 14.55487060546875 38.91777420043945 C 15.74503993988037 38.91777420043945 18.79841041564941 38.82772445678711 21.43960952758789 37.99357223510742 C 22.72673034667969 37.58707427978516 23.70462036132812 37.07278442382812 24.34610939025879 36.46497344970703 C 24.95783996582031 35.8853645324707 25.23064041137695 35.2551155090332 25.23064041137695 34.42141342163086 C 25.23064041137695 28.23545455932617 20.13251113891602 23.20280456542969 13.86604976654053 23.20280456542969 L 13.86604976654053 18.20280456542969 C 18.22113037109375 18.20280456542969 21.76424980163574 14.68043327331543 21.76424980163574 10.35086345672607 C 21.76424980163574 6.021883964538574 18.22113037109375 2.500003814697266 13.86604976654053 2.500003814697266 C 9.510430335998535 2.500003814697266 5.966870307922363 6.021883964538574 5.966870307922363 10.35086345672607 C 5.966870307922363 14.68043327331543 9.510430335998535 18.20280456542969 13.86604976654053 18.20280456542969 L 13.86604976654053 23.20280456542969 C 10.82511043548584 23.20280456542969 7.96750020980835 24.37313461303711 5.819620132446289 26.49819374084473 C 3.678930282592773 28.61614418029785 2.500000238418579 31.42999458312988 2.500000238418579 34.42141342163086 C 2.500000238418579 35.25506210327148 2.772820234298706 35.88528442382812 3.384590148925781 36.46488189697266 C 4.026150226593018 37.07270431518555 5.004150390625 37.58701324462891 6.291419982910156 37.99351501464844 C 8.932940483093262 38.82768249511719 11.98657989501953 38.9177131652832 13.17681980133057 38.91770553588867 C 13.54377746582031 38.91769409179688 13.75967884063721 38.90920639038086 13.75977039337158 38.90920257568359 L 13.86074066162109 38.90442276000977 L 13.97030067443848 38.90911483764648 C 13.97243022918701 38.90920257568359 14.18797016143799 38.91777420043945 14.55487060546875 38.91777420043945 M 14.55487060546875 41.41777420043945 C 14.11855030059814 41.41777420043945 13.86604976654053 41.40694427490234 13.86604976654053 41.40694427490234 C 13.86604785919189 41.40695190429688 2.056884795820224e-07 41.99778747558594 2.056884795820224e-07 34.42141342163086 C 2.056884795820224e-07 26.84516334533691 6.208160400390625 20.70280456542969 13.86604976654053 20.70280456542969 C 8.122750282287598 20.70280456542969 3.466870307922363 16.0691032409668 3.466870307922363 10.35086345672607 C 3.466870307922363 4.633703708648682 8.122750282287598 3.737792894753511e-06 13.86604976654053 3.737792894753511e-06 C 19.60789108276367 3.737792894753511e-06 24.26424980163574 4.633703708648682 24.26424980163574 10.35086345672607 C 24.26424980163574 16.0691032409668 19.60789108276367 20.70280456542969 13.86604976654053 20.70280456542969 C 21.52248001098633 20.70280456542969 27.73064041137695 26.84516334533691 27.73064041137695 34.42141342163086 C 27.73064041137695 40.97585296630859 17.35420036315918 41.41777420043945 14.55487060546875 41.41777420043945 Z" stroke="none" fill="#4e4e4e"/>
      </g>
      <g id="Многоугольник_1" transform="translate(3.466 32.78) rotate(-90)" fill="#fff">
        <path d="M 15.41719341278076 16.33135795593262 L 5.286232948303223 16.33135795593262 C 4.556993007659912 16.33135795593262 3.906743288040161 15.95271682739258 3.546813249588013 15.31849765777588 C 3.186883211135864 14.68427753448486 3.195253133773804 13.9318675994873 3.569183111190796 13.30580711364746 L 8.634673118591309 4.824917316436768 C 8.999113082885742 4.214747428894043 9.640993118286133 3.850467205047607 10.35171318054199 3.850467205047607 C 11.06243324279785 3.850467205047607 11.70431327819824 4.214747428894043 12.06875324249268 4.824917316436768 L 17.13424301147461 13.30580711364746 C 17.5081729888916 13.9318675994873 17.51654243469238 14.68427753448486 17.15661239624023 15.31849765777588 C 16.79668235778809 15.95271682739258 16.14643287658691 16.33135795593262 15.41719341278076 16.33135795593262 Z" stroke="none"/>
        <path d="M 10.35171318054199 4.850476264953613 C 10.18107318878174 4.850476264953613 9.755843162536621 4.897946357727051 9.493193626403809 5.337696075439453 L 4.427703857421875 13.81857681274414 C 4.158212661743164 14.2697868347168 4.330102920532227 14.67265605926514 4.416522979736328 14.82492637634277 C 4.502933502197266 14.97719573974609 4.760673522949219 15.33136558532715 5.286232948303223 15.33136558532715 L 15.41719341278076 15.33136558532715 C 15.94275283813477 15.33136558532715 16.20049285888672 14.97720623016357 16.28690338134766 14.82493591308594 C 16.37332344055176 14.67266654968262 16.54521369934082 14.2697868347168 16.27572250366211 13.8185863494873 L 11.21023273468018 5.337696075439453 C 10.94758319854736 4.897946357727051 10.52234363555908 4.850476264953613 10.35171318054199 4.850476264953613 M 10.35171699523926 2.850473403930664 C 11.34848976135254 2.850473403930664 12.34525775909424 3.337690353393555 12.92727279663086 4.312136650085449 L 17.99276351928711 12.79302597045898 C 19.1871223449707 14.79269599914551 17.74640274047852 17.33136558532715 15.41719341278076 17.33136558532715 L 5.286232948303223 17.33136558532715 C 2.957023620605469 17.33135604858398 1.516304016113281 14.79269599914551 2.710662841796875 12.79302597045898 L 7.776153564453125 4.312136650085449 C 8.358168601989746 3.337696075439453 9.354944229125977 2.850473403930664 10.35171699523926 2.850473403930664 Z" stroke="none" fill="#4e4e4e"/>
      </g>
      <g id="Многоугольник_2" transform="translate(17.331 0.575) rotate(90)" fill="#fff">
        <path d="M 15.41719341278076 16.33135795593262 L 5.286232948303223 16.33135795593262 C 4.556993007659912 16.33135795593262 3.906743288040161 15.95271682739258 3.546813249588013 15.31849765777588 C 3.186883211135864 14.68427753448486 3.195253133773804 13.9318675994873 3.569183111190796 13.30580711364746 L 8.634673118591309 4.824917316436768 C 8.999113082885742 4.214747428894043 9.640993118286133 3.850467205047607 10.35171318054199 3.850467205047607 C 11.06243324279785 3.850467205047607 11.70431327819824 4.214747428894043 12.06875324249268 4.824917316436768 L 17.13424301147461 13.30580711364746 C 17.5081729888916 13.9318675994873 17.51654243469238 14.68427753448486 17.15661239624023 15.31849765777588 C 16.79668235778809 15.95271682739258 16.14643287658691 16.33135795593262 15.41719341278076 16.33135795593262 Z" stroke="none"/>
        <path d="M 10.35171318054199 4.850476264953613 C 10.18107318878174 4.850476264953613 9.755843162536621 4.897946357727051 9.493193626403809 5.337696075439453 L 4.427703857421875 13.81857681274414 C 4.158212661743164 14.2697868347168 4.330102920532227 14.67265605926514 4.416522979736328 14.82492637634277 C 4.502933502197266 14.97719573974609 4.760673522949219 15.33136558532715 5.286232948303223 15.33136558532715 L 15.41719341278076 15.33136558532715 C 15.94275283813477 15.33136558532715 16.20049285888672 14.97720623016357 16.28690338134766 14.82493591308594 C 16.37332344055176 14.67266654968262 16.54521369934082 14.2697868347168 16.27572250366211 13.8185863494873 L 11.21023273468018 5.337696075439453 C 10.94758319854736 4.897946357727051 10.52234363555908 4.850476264953613 10.35171318054199 4.850476264953613 M 10.35171699523926 2.850473403930664 C 11.34848976135254 2.850473403930664 12.34525775909424 3.337690353393555 12.92727279663086 4.312136650085449 L 17.99276351928711 12.79302597045898 C 19.1871223449707 14.79269599914551 17.74640274047852 17.33136558532715 15.41719341278076 17.33136558532715 L 5.286232948303223 17.33136558532715 C 2.957023620605469 17.33135604858398 1.516304016113281 14.79269599914551 2.710662841796875 12.79302597045898 L 7.776153564453125 4.312136650085449 C 8.358168601989746 3.337696075439453 9.354944229125977 2.850473403930664 10.35171699523926 2.850473403930664 Z" stroke="none" fill="#4e4e4e"/>
      </g>
    </g>
  </g>
</svg>
